<svg width="24" height="25" viewBox="0 0 24 25" fill="none" xmlns="http://www.w3.org/2000/svg">
<mask id="mask0_4676_2327" style="mask-type:alpha" maskUnits="userSpaceOnUse" x="0" y="0" width="24" height="25">
<rect y="0.572266" width="24" height="24" fill="#D9D9D9"/>
</mask>
<g mask="url(#mask0_4676_2327)">
<path d="M6 14.5723H18V12.5723H6V14.5723ZM6 11.5723H18V9.57227H6V11.5723ZM6 8.57227H18V6.57227H6V8.57227ZM4 18.5723C3.45 18.5723 2.97917 18.3764 2.5875 17.9848C2.19583 17.5931 2 17.1223 2 16.5723V4.57227C2 4.02227 2.19583 3.55143 2.5875 3.15977C2.97917 2.7681 3.45 2.57227 4 2.57227H20C20.55 2.57227 21.0208 2.7681 21.4125 3.15977C21.8042 3.55143 22 4.02227 22 4.57227V22.5723L18 18.5723H4Z" fill="#F9F9FF"/>
</g>
</svg>
