<svg width="24" height="25" viewBox="0 0 24 25" fill="none" xmlns="http://www.w3.org/2000/svg">
<mask id="mask0_4676_2309" style="mask-type:alpha" maskUnits="userSpaceOnUse" x="0" y="0" width="24" height="25">
<rect y="0.572266" width="24" height="24" fill="#D9D9D9"/>
</mask>
<g mask="url(#mask0_4676_2309)">
<path d="M7 20.5973V11.5723H8.6C8.71667 11.5723 8.83333 11.5848 8.95 11.6098C9.06667 11.6348 9.18333 11.6639 9.3 11.6973L16.225 14.2723C16.4583 14.3556 16.6458 14.5056 16.7875 14.7223C16.9292 14.9389 17 15.1639 17 15.3973C17 15.7473 16.8792 16.0306 16.6375 16.2473C16.3958 16.4639 16.1167 16.5723 15.8 16.5723H13.175C13.0917 16.5723 13.0292 16.5681 12.9875 16.5598C12.9458 16.5514 12.8917 16.5306 12.825 16.4973L11.225 15.8723L10.9 16.8473L12.825 17.5223C12.8583 17.5389 12.9083 17.5514 12.975 17.5598C13.0417 17.5681 13.1 17.5723 13.15 17.5723H20C20.5333 17.5723 21 17.7639 21.4 18.1473C21.8 18.5306 22 19.0056 22 19.5723L14.025 22.5723L7 20.5973ZM1 22.5723V11.5723H5V22.5723H1ZM16 13.5723L11.85 9.52227C11.3333 9.02227 10.8958 8.4681 10.5375 7.85977C10.1792 7.25143 10 6.58893 10 5.87227C10 4.9556 10.3208 4.17643 10.9625 3.53477C11.6042 2.8931 12.3833 2.57227 13.3 2.57227C13.8333 2.57227 14.3333 2.68477 14.8 2.90977C15.2667 3.13477 15.6667 3.43893 16 3.82227C16.3333 3.43893 16.7333 3.13477 17.2 2.90977C17.6667 2.68477 18.1667 2.57227 18.7 2.57227C19.6167 2.57227 20.3958 2.8931 21.0375 3.53477C21.6792 4.17643 22 4.9556 22 5.87227C22 6.58893 21.825 7.25143 21.475 7.85977C21.125 8.4681 20.6917 9.02227 20.175 9.52227L16 13.5723Z" fill="#F9F9FF"/>
</g>
</svg>
